<svg width="33" height="34" viewBox="0 0 33 34" fill="none" xmlns="http://www.w3.org/2000/svg">
<path d="M30.736 0.989624H1.27692C0.568465 0.989624 -0.00390625 1.562 -0.00390625 2.27046V31.7296C-0.00390625 32.438 0.568465 33.0104 1.27692 33.0104H30.736C31.4445 33.0104 32.0169 32.438 32.0169 31.7296V2.27046C32.0169 1.562 31.4445 0.989624 30.736 0.989624ZM9.49426 28.2753H4.74317V12.9934H9.49426V28.2753ZM7.12072 10.9041C6.57607 10.9041 6.04365 10.7425 5.59079 10.44C5.13794 10.1374 4.78498 9.70729 4.57655 9.2041C4.36812 8.70091 4.31359 8.14722 4.41984 7.61303C4.5261 7.07885 4.78837 6.58817 5.1735 6.20305C5.55862 5.81792 6.0493 5.55565 6.58348 5.4494C7.11766 5.34314 7.67136 5.39768 8.17455 5.6061C8.67773 5.81453 9.10782 6.16749 9.41041 6.62035C9.713 7.07321 9.8745 7.60562 9.8745 8.15027C9.8705 9.67126 8.6377 10.9041 7.12072 10.9041ZM27.2818 28.2753H22.5347V20.8425C22.5347 19.0694 22.5027 16.7919 20.0651 16.7919C17.5955 16.7919 17.2153 18.7211 17.2153 20.7144V28.2753H12.4722V12.9934H17.0271V15.0828H17.0912C17.7236 13.882 19.2726 12.6132 21.5861 12.6132C26.3972 12.6132 27.2818 15.7792 27.2818 19.8939V28.2753Z" fill="white"/>
</svg>
